<mxfile host="app.diagrams.net" agent="Mozilla/5.0 (Windows NT 10.0; Win64; x64) AppleWebKit/537.36 (KHTML, like Gecko) Chrome/130.0.0.0 Safari/537.36" version="24.8.4">
  <diagram name="Page-1" id="dwAIE9gorQMwBHoiML9-">
    <mxGraphModel dx="1050" dy="522" grid="1" gridSize="10" guides="1" tooltips="1" connect="1" arrows="1" fold="1" page="1" pageScale="1" pageWidth="827" pageHeight="1169" math="0" shadow="0">
      <root>
        <mxCell id="0" />
        <mxCell id="1" parent="0" />
        <mxCell id="di62RwhrPvoY4Fmf4uYo-4" style="edgeStyle=orthogonalEdgeStyle;rounded=0;orthogonalLoop=1;jettySize=auto;html=1;" edge="1" parent="1" source="asAAAfu1wUCB6j5eI-mF-1" target="asAAAfu1wUCB6j5eI-mF-2">
          <mxGeometry relative="1" as="geometry" />
        </mxCell>
        <mxCell id="asAAAfu1wUCB6j5eI-mF-1" value="dinner" style="shape=process;whiteSpace=wrap;html=1;backgroundOutline=1;" parent="1" vertex="1">
          <mxGeometry x="354" y="40" width="120" height="60" as="geometry" />
        </mxCell>
        <mxCell id="asAAAfu1wUCB6j5eI-mF-5" value="" style="edgeStyle=orthogonalEdgeStyle;rounded=0;orthogonalLoop=1;jettySize=auto;html=1;" parent="1" source="asAAAfu1wUCB6j5eI-mF-2" target="asAAAfu1wUCB6j5eI-mF-4" edge="1">
          <mxGeometry relative="1" as="geometry" />
        </mxCell>
        <mxCell id="asAAAfu1wUCB6j5eI-mF-2" value="output: Hello welcome to&amp;nbsp;&lt;div&gt;dinner!&lt;/div&gt;" style="shape=parallelogram;perimeter=parallelogramPerimeter;whiteSpace=wrap;html=1;fixedSize=1;" parent="1" vertex="1">
          <mxGeometry x="326" y="260" width="176" height="90" as="geometry" />
        </mxCell>
        <mxCell id="asAAAfu1wUCB6j5eI-mF-7" value="" style="edgeStyle=orthogonalEdgeStyle;rounded=0;orthogonalLoop=1;jettySize=auto;html=1;entryX=1;entryY=0.5;entryDx=0;entryDy=0;" parent="1" source="asAAAfu1wUCB6j5eI-mF-4" edge="1" target="asAAAfu1wUCB6j5eI-mF-11">
          <mxGeometry relative="1" as="geometry">
            <mxPoint x="254" y="300" as="targetPoint" />
            <Array as="points" />
          </mxGeometry>
        </mxCell>
        <mxCell id="asAAAfu1wUCB6j5eI-mF-14" style="edgeStyle=orthogonalEdgeStyle;rounded=0;orthogonalLoop=1;jettySize=auto;html=1;entryX=0;entryY=0.5;entryDx=0;entryDy=0;" parent="1" source="asAAAfu1wUCB6j5eI-mF-4" target="asAAAfu1wUCB6j5eI-mF-13" edge="1">
          <mxGeometry relative="1" as="geometry" />
        </mxCell>
        <mxCell id="asAAAfu1wUCB6j5eI-mF-4" value="eligible" style="shape=process;whiteSpace=wrap;html=1;backgroundOutline=1;" parent="1" vertex="1">
          <mxGeometry x="370" y="410" width="120" height="60" as="geometry" />
        </mxCell>
        <mxCell id="asAAAfu1wUCB6j5eI-mF-8" value="YES???" style="text;html=1;align=center;verticalAlign=middle;whiteSpace=wrap;rounded=0;" parent="1" vertex="1">
          <mxGeometry x="290" y="390" width="60" height="30" as="geometry" />
        </mxCell>
        <mxCell id="asAAAfu1wUCB6j5eI-mF-11" value="findTable" style="shape=process;whiteSpace=wrap;html=1;backgroundOutline=1;" parent="1" vertex="1">
          <mxGeometry x="110" y="410" width="120" height="60" as="geometry" />
        </mxCell>
        <mxCell id="asAAAfu1wUCB6j5eI-mF-13" value="quitProgram" style="shape=process;whiteSpace=wrap;html=1;backgroundOutline=1;" parent="1" vertex="1">
          <mxGeometry x="560" y="420" width="120" height="60" as="geometry" />
        </mxCell>
        <mxCell id="asAAAfu1wUCB6j5eI-mF-15" value="NO!!" style="text;html=1;align=center;verticalAlign=middle;whiteSpace=wrap;rounded=0;" parent="1" vertex="1">
          <mxGeometry x="490" y="400" width="60" height="30" as="geometry" />
        </mxCell>
        <mxCell id="di62RwhrPvoY4Fmf4uYo-5" style="edgeStyle=orthogonalEdgeStyle;rounded=0;orthogonalLoop=1;jettySize=auto;html=1;entryX=0.63;entryY=1.047;entryDx=0;entryDy=0;entryPerimeter=0;" edge="1" parent="1" source="asAAAfu1wUCB6j5eI-mF-11" target="asAAAfu1wUCB6j5eI-mF-13">
          <mxGeometry relative="1" as="geometry">
            <Array as="points">
              <mxPoint x="170" y="540" />
              <mxPoint x="395" y="540" />
              <mxPoint x="395" y="510" />
              <mxPoint x="636" y="510" />
            </Array>
          </mxGeometry>
        </mxCell>
      </root>
    </mxGraphModel>
  </diagram>
</mxfile>
